<?xml version="1.0" encoding="UTF-8"?>
<svg xmlns="http://www.w3.org/2000/svg" version="1.1" viewBox="0 0 183.4 96.6">
  <defs>
    <style>
      .cls-1 {
        fill: #774949;
      }
    </style>
  </defs>
  <!-- Generator: Adobe Illustrator 28.6.0, SVG Export Plug-In . SVG Version: 1.2.0 Build 709)  -->
  <g>
    <g id="Layer_1">
      <g>
        <path class="cls-1" d="M43.6,30c17.3-10.9,38.9-5.6,58.1-6.9,6.4-.4,12.7-1.6,18.8-4.3-5.2,4.1-11.8,6.4-18.5,7.4-19.6,2.9-39.4-2.9-58.4,3.7h0Z"/>
        <path class="cls-1" d="M38.5,31c-12.9,5.6-15.4,20.9-26.1,29.5-3.6,3-8,5.2-12.5,6,3.7-2.7,7-5.5,9.7-8.8,8.4-9.4,13.7-26.6,28.8-26.6h0Z"/>
        <path class="cls-1" d="M60,32.7c12.3-2.4,23.4,9.2,18.6,21.3-.6-2.7-1.2-5.2-2.1-7.5-2.8-7.3-9.5-11-16.5-13.8h0Z"/>
        <path class="cls-1" d="M121.1,31.4c11.5-1.4,24.5,8.3,24.5,20.2,0,.8,0,1.6-.2,2.4,0,0-.4,0-.4,0l-.7-2-.3-1c-3.5-8.3-10.9-14.1-19-17.7-1.3-.6-2.6-1.1-4-1.6v-.4h.1Z"/>
        <path class="cls-1" d="M113.3,13.9c1.8-.4,3.6,0,5.2-.3,1.3-.1,2.2-.4,3.5-.8,3-.8,6.4-1.9,9.7-1.8,0,0,.2.3.2.3-4.6,3.3-10.8,7.3-16.5,4,0,0-2.2-1.2-2.2-1.2,0,0,.1-.3.1-.3h0Z"/>
        <path class="cls-1" d="M117.9,7.1c6.3,1.2,11.7-1.2,18-1.9,2.2-.2,4.4-.4,6.9,0v.3c-3.9,1.6-8.2,3.2-12.4,4.1-4.3,1-9.2.7-12.7-2.3,0,0,.2-.3.2-.3h0Z"/>
        <path class="cls-1" d="M130.5,2.2c3.5.6,6.6-.3,10.1-.8,3.4-.6,6.8-1.1,10.4-1.3,7.1-.4,15.5.4,20.9,5.7,0,0-.2.3-.2.3-6.4-3-13.6-3-20.5-2.6-3.5.2-7,.5-10.5.6-3.5,0-7.3.2-10.4-1.7,0,0,.2-.3.2-.3h0Z"/>
        <path class="cls-1" d="M174.5,10.1c-13.9-5.1-29.2-2-41.5,5.7-4.2,2.5-8.2,5.4-12.3,8.4,2.9-4.2,6.4-7.9,10.5-11,11.8-9.5,30.7-12.8,43.3-3.1h0Z"/>
        <path class="cls-1" d="M163.8,24.2c-3.9,1.3-6.7,4.1-9.3,7.1-2.8,3.1-5,6.6-7.9,9.6.3-6.7,4.1-13.5,10.4-16.4,2.1-.9,4.7-1.3,6.8-.3h0Z"/>
        <path class="cls-1" d="M169,18.2c-2.4,3.1-5,5.9-3.1,9.9.5,1.2,1.1,2.5,1.7,3.9-7.7-3-6.9-12.5,1.4-13.8h0Z"/>
        <path class="cls-1" d="M173.6,14.2c-1.2-3.3.8-6.9,4.5-7.1,1.5-.1,3,.3,4.5.6-.5.9-1.2,2-1.8,2.8-1.1,1.7-2.3,3.3-3.8,4.7.2-.7.4-1.3.6-1.9.7-1.9,1.6-3.7,2.5-5.4,0,0,.6,1.4.6,1.4-4.2-.9-6.6.4-7.2,4.8h0Z"/>
        <g>
          <path class="cls-1" d="M132.3,92.7h0c0,2.6-1.7,4-4.4,4s-4.4-1.4-4.4-4v-3.4c0-2.6,1.7-4,4.4-4s4.3,1.4,4.3,3.9h0c0,0-1.9,0-1.9,0h0c0-1.5-.9-2.3-2.4-2.3s-2.5.8-2.5,2.4v3.4c0,1.6.9,2.4,2.5,2.4s2.4-.8,2.4-2.2h0c0,0,1.9,0,1.9,0Z"/>
          <path class="cls-1" d="M141.7,93.5c0,2.1-1.4,3.2-3.5,3.2s-3.5-1.1-3.5-3.2v-2.2c0-2.1,1.4-3.2,3.5-3.2s3.5,1.1,3.5,3.2v2.2ZM139.9,91.2c0-1-.7-1.5-1.7-1.5s-1.7.5-1.7,1.5v2.4c0,1,.7,1.5,1.7,1.5s1.7-.5,1.7-1.5v-2.4Z"/>
          <path class="cls-1" d="M144.3,88.3h1.4l.2.8c.5-.7,1.4-1,2.4-1,1.8,0,3,1,3,3.2v5.2h-1.8v-5.4c0-1-.7-1.5-1.7-1.5s-1.8.5-1.8,1.5v5.3h-1.8v-8.2Z"/>
          <path class="cls-1" d="M156.7,93.7c0,1.4.5,1.6,2.3,1.4v1.5c-3.4.5-4.1-.7-4.1-3v-3.7h-1.4v-1.5h1.4v-2.5l1.8-.5v3h2.3v1.5h-2.3v3.8Z"/>
          <path class="cls-1" d="M161.4,88.3h1.4l.3,1c.7-.9,1.9-1.3,3.1-1v1.6c-1.9-.3-3,.3-3,1.4v5.3h-1.8v-8.2Z"/>
          <path class="cls-1" d="M174.9,93.5c0,2.1-1.4,3.2-3.5,3.2s-3.5-1.1-3.5-3.2v-2.2c0-2.1,1.4-3.2,3.5-3.2s3.5,1.1,3.5,3.2v2.2ZM173.1,91.2c0-1-.7-1.5-1.7-1.5s-1.7.5-1.7,1.5v2.4c0,1,.7,1.5,1.7,1.5s1.7-.5,1.7-1.5v-2.4Z"/>
          <path class="cls-1" d="M177.6,84.7h1.8v11.8h-1.8v-11.8Z"/>
        </g>
        <g>
          <path class="cls-1" d="M142.8,76.3h-4.8v4.8h-1.9v-11.2h1.9v4.8h4.8v-4.8h1.9v11.2h-1.9v-4.8Z"/>
          <path class="cls-1" d="M154.3,78c0,2.1-1.4,3.2-3.5,3.2s-3.5-1.1-3.5-3.2v-2.2c0-2.1,1.4-3.2,3.5-3.2s3.5,1.1,3.5,3.2v2.2ZM152.6,75.7c0-1-.7-1.5-1.7-1.5s-1.7.5-1.7,1.5v2.4c0,1,.7,1.5,1.7,1.5s1.7-.5,1.7-1.5v-2.4Z"/>
          <path class="cls-1" d="M157,72.8h1.4l.3,1c.7-.9,1.9-1.3,3.1-1v1.6c-1.9-.3-3,.3-3,1.4v5.3h-1.8v-8.2Z"/>
          <path class="cls-1" d="M167.4,77.8l-1.6-.3c-1.4-.3-2.4-1.1-2.4-2.4s1.2-2.5,3.3-2.5,3.3.8,3.3,2.5v.2h-1.8c0-.9-.5-1.2-1.5-1.2s-1.6.3-1.6,1,.3.8,1,.9l1.6.3c1.4.3,2.3,1.1,2.3,2.3s-1.3,2.5-3.4,2.5-3.4-.8-3.4-2.5v-.2h1.8c0,.9.6,1.2,1.7,1.2s1.7-.3,1.7-1-.3-.8-1-.9Z"/>
          <path class="cls-1" d="M179.6,78.4c-.2,1.8-1.5,2.8-3.5,2.8s-3.5-1.1-3.5-3.2v-2.2c0-2.1,1.4-3.2,3.5-3.2s3.5,1.1,3.5,3.2v1.6h-5.2v.6c0,1,.6,1.6,1.7,1.6s1.6-.5,1.7-1.2h1.8ZM174.4,76.1h3.4v-.4c0-1-.7-1.5-1.7-1.5s-1.7.5-1.7,1.5v.4Z"/>
        </g>
        <circle class="cls-1" cx="175.5" cy="61.1" r="3.3"/>
        <circle class="cls-1" cx="123.7" cy="74.2" r="3.3"/>
        <circle class="cls-1" cx="112" cy="92.3" r="3.3"/>
        <path class="cls-1" d="M107.1,61.9c6.3,0,67,0,67,0l1.4-.8-1.4-.8s-60.7,0-67,0c-7.6.1-15.8-1-22.6,3.4l-12.4,7.6c-.2.1-.4.1-.6,0-1.7-.8-3.4-1.7-5-2.6,0,0-11.3-6.2-11.3-6.2-1.7-.9-4.1-2.3-5.9-2.9-5.2-1.9-7.8-1.2-13.2-1.3-5.3.2-5.8.5-11.1.8,5.3.3,5.8.5,11.1.8,6.3,0,9.9-.7,15.5,2.5l2.8,1.5s11.3,6.2,11.3,6.2c1.1.6,2.2,1.3,3.4,1.9s.5.9,0,1.2l-20,12.2c-.2.1-.5.1-.7,0-2.4-1.3-5-2.6-7-3.6-3.9-1.9-8.5-2.1-12.7-1.9-2,0-1.6,0-3.5,0-5.3.2-10.6.5-15.9.8,5.3.3,10.6.6,15.9.8,2,0,1.5,0,3.5,0,4.1-.1,8.4,0,12.1,1.8,1.5.7,3.5,1.7,5.4,2.8s.5.9,0,1.2l-.9.5c-3.2,1.9-6.8,2.9-10.5,3-7.8-.1-26.1.6-34.2.8,8,.2,26.4.9,34.2.7,3.9,0,7.8-1.2,11.2-3.2,0,0,.9-.5,2.3-1.4s.5-.1.7,0c1,.6,2.1,1.1,2.9,1.5,3.7,2.1,7.9,3.9,12.2,4,4.5,0,44.7,0,44.7,0v-1.6c0,0-40.1,0-44.6,0-4.1,0-8.1-1.9-11.6-3.9-.5-.2-.9-.5-1.4-.7s-.5-.9,0-1.2c5.1-3.1,13.2-8,20.2-12.3s.4-.1.6,0c1.8.7,3.8,1.3,5.7,1.4,3.7.3,9.1,0,12.9.1h30.8s1.4-.8,1.4-.8l-1.4-.8s-30.8,0-30.8,0c-3.7,0-9.2.2-12.8-.1-1.1,0-2.1-.3-3.2-.6s-.7-.9-.2-1.2c6-3.6,10.5-6.4,10.5-6.4,6.5-4.3,14.4-3.1,21.8-3.2Z"/>
        <path class="cls-1" d="M168,34.2c1,1.9,1.8,3.8,2.3,6,.2.8.1,2,.6,2.7.4.7,1.2,1.3,2,1.2,0,0-.1,0,0,0,1.3-.5,2.8-1.4,3.8-2.5,0,0,0-.2,0,.2,0,0,0,.2,0,.3h0s0-.3,0-.3c.2-5,.3-11,.9-16,0-.5.2-1.5.4-2,1.4-2.7,1.7-5.3,1.3-8.5,0,0,.3-.1.3-.1.8,1.9,1.3,4,1.1,6.1,0,1.6-.8,2.9-.8,4.5,0,4.6,0,9.2,0,13.9,0,1,0,2.2-.3,3.2-1.2,1.8-3.3,2.7-5.2,3.5-2.1.9-4.5-.8-5-2.9-.3-1,0-2.1-.2-3.1-.1-2-.6-4.1-1.1-6h.3Z"/>
        <path class="cls-1" d="M180.1,14c0-1.3.7-2.3,2-2.3.3,0,1.1,0,1.4.5-1,.7-2.1,1.4-3.3,2,0,0,0-.1,0-.1h0Z"/>
      </g>
    </g>
  </g>
</svg>